<?xml version="1.0" encoding="UTF-8"?>
<svg width="1020px" height="900px" viewBox="0 0 1020 900" version="1.1" xmlns="http://www.w3.org/2000/svg" xmlns:xlink="http://www.w3.org/1999/xlink" xmlns:sketch="http://www.bohemiancoding.com/sketch/ns">
    <!-- Generator: Sketch 3.4.2 (15855) - http://www.bohemiancoding.com/sketch -->
    <title>funcimp</title>
    <desc>Created with Sketch.</desc>
    <defs></defs>
    <g id="Page-1" stroke="none" stroke-width="1" fill="none" fill-rule="evenodd" sketch:type="MSPage">
        <g id="funcimp" sketch:type="MSArtboardGroup">
            <rect id="Rectangle-69" fill="#000000" sketch:type="MSShapeGroup" x="0" y="0" width="1020" height="900"></rect>
            <g id="IMP" sketch:type="MSLayerGroup" transform="translate(120.000000, 420.000000)" fill="#FFFFFF">
                <path d="M0,0 L60,0 L60,60 L0,60 L0,0 Z M60,0 L120,0 L120,60 L60,60 L60,0 Z M120,0 L180,0 L180,60 L120,60 L120,0 Z M60,60 L120,60 L120,120 L60,120 L60,60 Z M60,120 L120,120 L120,180 L60,180 L60,120 Z M60,180 L120,180 L120,240 L60,240 L60,180 Z M0,240 L60,240 L60,300 L0,300 L0,240 Z M60,240 L120,240 L120,300 L60,300 L60,240 Z M120,240 L180,240 L180,300 L120,300 L120,240 Z" id="Rectangle-1" sketch:type="MSShapeGroup"></path>
                <path d="M240,240 L300,240 L300,300 L240,300 L240,240 Z M240,180 L300,180 L300,240 L240,240 L240,180 Z M240,120 L300,120 L300,180 L240,180 L240,120 Z M300,180 L360,180 L360,240 L300,240 L300,180 Z M240,300 L300,300 L300,360 L240,360 L240,300 Z M360,180 L420,180 L420,240 L360,240 L360,180 Z M360,240 L420,240 L420,300 L360,300 L360,240 Z M360,300 L420,300 L420,360 L360,360 L360,300 Z M360,120 L420,120 L420,180 L360,180 L360,120 Z M420,120 L480,120 L480,180 L420,180 L420,120 Z M480,120 L540,120 L540,180 L480,180 L480,120 Z M480,180 L540,180 L540,240 L480,240 L480,180 Z M480,240 L540,240 L540,300 L480,300 L480,240 Z M480,300 L540,300 L540,360 L480,360 L480,300 Z" id="Rectangle-1" sketch:type="MSShapeGroup"></path>
                <path d="M600,120 L660,120 L660,180 L600,180 L600,120 Z M600,180 L660,180 L660,240 L600,240 L600,180 Z M600,240 L660,240 L660,300 L600,300 L600,240 Z M600,300 L660,300 L660,360 L600,360 L600,300 Z M600,360 L660,360 L660,420 L600,420 L600,360 Z M600,60 L660,60 L660,120 L600,120 L600,60 Z M660,60 L720,60 L720,120 L660,120 L660,60 Z M720,60 L780,60 L780,120 L720,120 L720,60 Z M720,120 L780,120 L780,180 L720,180 L720,120 Z M720,180 L780,180 L780,240 L720,240 L720,180 Z M660,180 L720,180 L720,240 L660,240 L660,180 Z" id="Rectangle-1" sketch:type="MSShapeGroup"></path>
            </g>
            <g id="FUNC" sketch:type="MSLayerGroup" transform="translate(60.000000, 60.000000)" fill="#FFFFFF">
                <path d="M0,0 L60,0 L60,60 L0,60 L0,0 Z M0,60 L60,60 L60,120 L0,120 L0,60 Z M0,120 L60,120 L60,180 L0,180 L0,120 Z M0,180 L60,180 L60,240 L0,240 L0,180 Z M60,0 L120,0 L120,60 L60,60 L60,0 Z M120,0 L180,0 L180,60 L120,60 L120,0 Z M60,120 L120,120 L120,180 L60,180 L60,120 Z M0,240 L60,240 L60,300 L0,300 L0,240 Z" id="Rectangle-1" sketch:type="MSShapeGroup"></path>
                <path d="M241,120 L301,120 L301,180 L241,180 L241,120 Z M241,180 L301,180 L301,240 L241,240 L241,180 Z M241,240 L301,240 L301,300 L241,300 L241,240 Z M301,240 L361,240 L361,300 L301,300 L301,240 Z M361,240 L421,240 L421,300 L361,300 L361,240 Z M361,180 L421,180 L421,240 L361,240 L361,180 Z M361,120 L421,120 L421,180 L361,180 L361,120 Z" id="Rectangle-1" sketch:type="MSShapeGroup"></path>
                <path d="M480,120 L540,120 L540,180 L480,180 L480,120 Z M480,180 L540,180 L540,240 L480,240 L480,180 Z M480,240 L540,240 L540,300 L480,300 L480,240 Z M480,60 L540,60 L540,120 L480,120 L480,60 Z M540,120 L600,120 L600,180 L540,180 L540,120 Z M600,120 L660,120 L660,180 L600,180 L600,120 Z M600,180 L660,180 L660,240 L600,240 L600,180 Z M600,240 L660,240 L660,300 L600,300 L600,240 Z" id="Rectangle-1" sketch:type="MSShapeGroup"></path>
                <path d="M720,240 L780,240 L780,300 L720,300 L720,240 Z M720,180 L780,180 L780,240 L720,240 L720,180 Z M720,120 L780,120 L780,180 L720,180 L720,120 Z M780,240 L840,240 L840,300 L780,300 L780,240 Z M840,240 L900,240 L900,300 L840,300 L840,240 Z M720,60 L780,60 L780,120 L720,120 L720,60 Z M780,60 L840,60 L840,120 L780,120 L780,60 Z M840,60 L900,60 L900,120 L840,120 L840,60 Z" id="Rectangle-1" sketch:type="MSShapeGroup"></path>
            </g>
        </g>
    </g>
</svg>